<?xml version="1.0" encoding="utf-8"?>
<!-- Generator: Adobe Illustrator 25.0.0, SVG Export Plug-In . SVG Version: 6.00 Build 0)  -->
<svg version="1.1" id="Слой_1" xmlns="http://www.w3.org/2000/svg" xmlns:xlink="http://www.w3.org/1999/xlink" x="0px" y="0px"
	 viewBox="0 0 219.8 287.3" style="enable-background:new 0 0 219.8 287.3;" xml:space="preserve">
<style type="text/css">
	.st0{fill:#FFFFFF;}
	.st1{fill:#F5D700;}
</style>
<g>
	<path class="st0" d="M29.3,61.1h-9.1v-40h9.2l12.3,16.8l11.7-16.8H62v40h-9.1V35.6L41.7,51.2h-1.3L29.3,35.8V61.1z"/>
	<path class="st0" d="M100.3,61.1h-9.2l16.6-40h8.2l16.6,40h-9.8l-3.3-8.4h-15.8L100.3,61.1z M116,44.1l-4.5-11.3l-4.5,11.3H116z"/>
	<path class="st0" d="M192.2,50.3l3.5,6.9c-1.2,1.4-3,2.5-5.4,3.4c-2.4,0.8-4.9,1.3-7.6,1.3c-6.2,0-11.3-1.9-15.1-5.7
		c-3.9-3.8-5.8-8.9-5.8-15c0-6,1.8-11,5.5-14.8c3.7-3.9,8.8-5.8,15.4-5.8c2.5,0,4.9,0.4,7,1.1c2.2,0.8,3.9,1.8,5.2,3l-4.1,6.9
		c-2.7-1.6-5.4-2.5-8.2-2.5c-3.2,0-5.9,1.1-8.1,3.2c-2.1,2.1-3.1,5.1-3.1,8.9c0,3.5,1.1,6.4,3.4,8.7c2.2,2.2,5.2,3.4,8.7,3.4
		C186.7,53.2,189.6,52.2,192.2,50.3z"/>
	<path class="st0" d="M36.5,167.3h-12v-8.6h33.1v8.6h-12v31.4h-9.1V167.3z"/>
	<path class="st0" d="M123.2,198.7H98.9v-40h23.7v8.6h-14.6v7h12.9v8.6h-12.9v7.3h15.1V198.7z"/>
	<path class="st0" d="M173.6,185.1v13.6h-9.1v-40c1.7,0,3.7,0,5.8-0.1c2.1,0,4.3-0.1,6.5-0.1c5.6,0,9.7,1.3,12.3,3.8
		c2.5,2.4,3.8,5.6,3.8,9.5c0,3.7-1.4,6.9-4.1,9.5c-2.7,2.6-6.3,3.9-10.7,3.9C176.1,185.3,174.6,185.2,173.6,185.1z M177.6,167.2
		c0,0-0.2,0-0.5,0c-0.3,0-0.8,0-1.4,0.1c-0.6,0-1.3,0-2.1,0v9.1c1.6,0.2,3,0.3,4.2,0.3c1.6,0,2.8-0.4,3.9-1.2c1-0.8,1.5-2,1.5-3.7
		C183.2,168.7,181.3,167.2,177.6,167.2z"/>
	<g>
		<path class="st0" d="M9.1,277.4H6.7v-38.1h21.8v2.3H9.1V277.4z"/>
		<path class="st0" d="M58.7,272.6c-3.6-3.8-5.4-8.5-5.4-14.2c0-5.7,1.8-10.4,5.4-14.2c3.6-3.7,8.3-5.6,14-5.6
			c5.7,0,10.3,1.9,14,5.6c3.7,3.7,5.5,8.5,5.5,14.2c0,5.8-1.8,10.5-5.5,14.2c-3.6,3.7-8.3,5.6-14,5.6
			C66.9,278.2,62.3,276.3,58.7,272.6z M72.6,240.9c-5,0-9,1.6-12.2,4.9c-3.2,3.3-4.8,7.5-4.8,12.6c0,5.1,1.6,9.3,4.8,12.6
			s7.3,4.9,12.2,4.9s9-1.6,12.2-4.9c3.2-3.3,4.8-7.5,4.8-12.6c0-5.1-1.6-9.3-4.8-12.6C81.7,242.5,77.6,240.9,72.6,240.9z"/>
		<path class="st0" d="M119.5,287.3h-2.3v-12.2h4.6c1.5-1.9,2.8-5,4.1-9.4c1.3-4.4,2-9.4,2.4-15.1l0.6-11.3h22.6v35.8h6.3v12.2h-2.3
			v-9.9h-36V287.3z M131.1,241.6l-0.6,9.9c-0.4,5.6-1.3,10.6-2.5,14.9c-1.3,4.3-2.5,7.3-3.7,8.7h24.8v-33.5H131.1z"/>
		<path class="st0" d="M188.7,244.1l-0.8-2c3.6-2.3,7.5-3.5,11.5-3.5c4.7,0,8.2,1.2,10.3,3.7c2.1,2.5,3.2,6.3,3.2,11.3v23.8h-2.3
			v-6.6c-3.5,4.7-8.1,7-14,7c-3.5,0-6.3-1-8.5-3c-2.1-2-3.2-4.6-3.2-7.9c0-3.6,1.3-6.4,3.9-8.5c2.6-2.1,6.1-3.1,10.4-3.1
			c4.7,0,8.5,1,11.4,3.1c0-2.5,0-4.1-0.1-5c-0.1-3.7-0.6-6.3-1.5-7.8c-1.8-3.2-5.1-4.8-9.9-4.8C195.9,240.9,192.3,241.9,188.7,244.1
			z M197.3,275.6c2.2,0,4.4-0.4,6.4-1.2c1.7-0.8,3-1.6,3.9-2.4c0.9-0.8,2-2,3.2-3.6v-7.6c-3.1-2.3-6.8-3.4-11.2-3.4
			c-3.2,0-6.1,0.8-8.5,2.4c-2.3,1.6-3.5,4-3.5,7c0,2.7,0.9,4.8,2.7,6.4C192.1,274.8,194.4,275.6,197.3,275.6z"/>
	</g>
	<path class="st1" d="M219.8,219.8H0V0h219.8V219.8z M6.7,213.1h206.4V6.7H6.7V213.1z"/>
	<polygon class="st1" points="29.7,124.1 29.7,95.9 52.4,110 	"/>
	<circle class="st1" cx="178.7" cy="109.9" r="13.1"/>
	<rect x="98.3" y="98.4" class="st1" width="23.2" height="23.2"/>
</g>
</svg>
